<svg xmlns="http://www.w3.org/2000/svg" width="20" height="20" viewBox="0 0 50 50">
  <path id="icon_add" d="M103.313-842.5h3.75v-10.375H117.5v-3.75H107.062V-867.5h-3.75v10.875H92.5v3.75h10.813Zm1.7,12.5a24.2,24.2,0,0,1-9.719-1.969,25.4,25.4,0,0,1-7.954-5.375,25.389,25.389,0,0,1-5.375-7.959A24.245,24.245,0,0,1,80-855.031a24.245,24.245,0,0,1,1.969-9.729,25.015,25.015,0,0,1,5.375-7.928,25.66,25.66,0,0,1,7.959-5.344A24.245,24.245,0,0,1,105.031-880a24.245,24.245,0,0,1,9.729,1.969,25.277,25.277,0,0,1,7.928,5.344,25.248,25.248,0,0,1,5.344,7.938A24.3,24.3,0,0,1,130-855.017a24.2,24.2,0,0,1-1.969,9.719,25.535,25.535,0,0,1-5.344,7.943,25.24,25.24,0,0,1-7.937,5.375A24.183,24.183,0,0,1,105.017-830Zm.015-3.75a20.412,20.412,0,0,0,15.031-6.219,20.567,20.567,0,0,0,6.188-15.062,20.483,20.483,0,0,0-6.176-15.031A20.489,20.489,0,0,0,105-876.25a20.55,20.55,0,0,0-15.031,6.176A20.437,20.437,0,0,0,83.75-855a20.478,20.478,0,0,0,6.219,15.031A20.515,20.515,0,0,0,105.031-833.75ZM105-855Z" transform="translate(-80 880)"/>
</svg>
