<svg xmlns="http://www.w3.org/2000/svg" width="48" height="48" viewBox="0 0 48 48">
  <path id="arrow_circle_right_default" d="M104-847.24l8.76-8.76L104-864.76l-2.52,2.52,4.44,4.44H95v3.6h10.92l-4.44,4.44ZM104-832a23.222,23.222,0,0,1-9.3-1.89,24.344,24.344,0,0,1-7.65-5.16,24.343,24.343,0,0,1-5.16-7.65A23.222,23.222,0,0,1,80-856a23.371,23.371,0,0,1,1.89-9.36,23.984,23.984,0,0,1,5.16-7.62,24.6,24.6,0,0,1,7.65-5.13A23.222,23.222,0,0,1,104-880a23.37,23.37,0,0,1,9.36,1.89,24.234,24.234,0,0,1,7.62,5.13,24.236,24.236,0,0,1,5.13,7.62A23.371,23.371,0,0,1,128-856a23.222,23.222,0,0,1-1.89,9.3,24.6,24.6,0,0,1-5.13,7.65,23.986,23.986,0,0,1-7.62,5.16A23.37,23.37,0,0,1,104-832Zm0-3.6a19.63,19.63,0,0,0,14.46-5.97A19.709,19.709,0,0,0,124.4-856a19.68,19.68,0,0,0-5.94-14.46A19.68,19.68,0,0,0,104-876.4a19.709,19.709,0,0,0-14.43,5.94A19.63,19.63,0,0,0,83.6-856a19.659,19.659,0,0,0,5.97,14.43A19.659,19.659,0,0,0,104-835.6ZM104-856Z" transform="translate(-80 880)" opacity="0.4"/>
</svg>
