<svg xmlns="http://www.w3.org/2000/svg" width="24" height="24" viewBox="0 0 24 24">
  <g id="icon_atm" transform="translate(-811.227 -1422)">
    <rect id="Rectangle_73" data-name="Rectangle 73" width="24" height="24" transform="translate(811.227 1422)" fill="none"/>
    <path id="atm_FILL0_wght400_GRAD0_opsz48" d="M88.541-594v-4.8H86.464V-600h5.4v1.2H89.787v4.8ZM80-594v-5.15a.813.813,0,0,1,.247-.613.879.879,0,0,1,.636-.237h3.609a.879.879,0,0,1,.636.237.813.813,0,0,1,.247.613V-594H84.128v-1.925H81.246V-594Zm1.246-3.125h2.882V-598.8H81.246ZM93.136-594v-5.15a.813.813,0,0,1,.247-.613.879.879,0,0,1,.636-.237h5.867a.879.879,0,0,1,.636.237.813.813,0,0,1,.247.613V-594H99.523v-4.8H97.576v3.75H96.33v-3.75H94.383v4.8Z" transform="translate(732.842 2031)"/>
  </g>
</svg>
