<svg xmlns="http://www.w3.org/2000/svg" width="24" height="24" viewBox="0 0 24 24">
  <g id="icon_credit-card" transform="translate(-811.227 -1422)">
    <rect id="Rectangle_73" data-name="Rectangle 73" width="24" height="24" transform="translate(811.227 1422)" fill="none"/>
    <path id="credit_card_FILL0_wght400_GRAD0_opsz48" d="M100.691-798.448V-785a1.489,1.489,0,0,1-.466,1.086,1.488,1.488,0,0,1-1.086.466H81.552a1.488,1.488,0,0,1-1.086-.466A1.489,1.489,0,0,1,80-785v-13.449a1.489,1.489,0,0,1,.466-1.086A1.489,1.489,0,0,1,81.552-800H99.14a1.489,1.489,0,0,1,1.086.466A1.489,1.489,0,0,1,100.691-798.448Zm-19.14,2.819H99.14v-2.819H81.552Zm0,3.336V-785H99.14v-7.294Zm0,7.294v0Z" transform="translate(732.881 2225.723)"/>
  </g>
</svg>
