<svg xmlns="http://www.w3.org/2000/svg" xmlns:xlink="http://www.w3.org/1999/xlink" width="32" height="32" viewBox="0 0 32 32">
  <defs>
    <clipPath id="clip-path">
      <rect id="Rectangle_124" data-name="Rectangle 124" width="32" height="32" fill="none"/>
    </clipPath>
  </defs>
  <g id="icon_star" transform="translate(0.409 -0.235)">
    <g id="Group_276" data-name="Group 276" transform="translate(-0.409 0.235)" clip-path="url(#clip-path)">
      <path id="Path_84" data-name="Path 84" d="M356.263,42.584l.82-1.083a1.253,1.253,0,0,1,1.768-.238,1.283,1.283,0,0,1,.236,1.787l-.82,1.083a1.252,1.252,0,0,1-1.768.238,1.283,1.283,0,0,1-.236-1.786" transform="translate(-333.002 -38.7)" fill="#333"/>
      <path id="Path_85" data-name="Path 85" d="M432.94,308.511l-1.262-.446a1.258,1.258,0,0,0-1.607.782,1.278,1.278,0,0,0,.774,1.624l1.262.446a1.25,1.25,0,0,0,.417.072,1.263,1.263,0,0,0,1.191-.854,1.278,1.278,0,0,0-.774-1.624" transform="translate(-402.33 -288.68)" fill="#333"/>
      <path id="Path_86" data-name="Path 86" d="M84.084,44.132a1.253,1.253,0,0,0,1.768.238,1.283,1.283,0,0,0,.236-1.786l-.82-1.083a1.253,1.253,0,0,0-1.769-.238,1.283,1.283,0,0,0-.236,1.787Z" transform="translate(-77.223 -38.701)" fill="#333"/>
      <path id="Path_87" data-name="Path 87" d="M2.107,303.065l-1.262.446a1.278,1.278,0,0,0-.774,1.624,1.263,1.263,0,0,0,1.191.854,1.248,1.248,0,0,0,.417-.072l1.262-.446a1.278,1.278,0,0,0,.774-1.624,1.258,1.258,0,0,0-1.608-.782" transform="translate(0.545 -283.999)" fill="#333"/>
      <path id="Path_88" data-name="Path 88" d="M226.265,451A1.268,1.268,0,0,0,225,452.274v1.338a1.262,1.262,0,1,0,2.523,0v-1.338A1.268,1.268,0,0,0,226.265,451" transform="translate(-210.265 -422.574)" fill="#333"/>
      <path id="Path_89" data-name="Path 89" d="M26.962,25.539l-1.337-4.024a1.259,1.259,0,0,0-1.6-.8,1.278,1.278,0,0,0-.795,1.614l1.334,4.016a.839.839,0,0,1-.311.959.8.8,0,0,1-.988,0l-4.953-3.626a3.325,3.325,0,0,0-3.965,0L9.4,27.356a.794.794,0,0,1-.985,0,.841.841,0,0,1-.309-.966L10,20.453a3.423,3.423,0,0,0-1.22-3.806L3.839,13a.812.812,0,0,1-.308-.944.8.8,0,0,1,.8-.581h6.106a3.378,3.378,0,0,0,3.2-2.387l1.892-5.943a.838.838,0,0,1,1.6,0l1.894,5.947a3.376,3.376,0,0,0,3.2,2.385h6.146a.8.8,0,0,1,.8.581.813.813,0,0,1-.31.945l-3.355,2.479a1.283,1.283,0,0,0-.274,1.781A1.253,1.253,0,0,0,27,17.533l3.353-2.478a3.364,3.364,0,0,0,1.221-3.793,3.317,3.317,0,0,0-3.2-2.341H22.23a.868.868,0,0,1-.8-.619L19.536,2.356a3.353,3.353,0,0,0-6.4,0L11.24,8.3a.869.869,0,0,1-.8.621H4.333a3.317,3.317,0,0,0-3.2,2.341,3.363,3.363,0,0,0,1.219,3.792l4.938,3.652a.865.865,0,0,1,.307.964L5.7,25.609a3.38,3.38,0,0,0,1.23,3.813,3.285,3.285,0,0,0,3.956-.01l4.952-3.681a.829.829,0,0,1,.99,0l4.953,3.626a3.284,3.284,0,0,0,3.952.006,3.379,3.379,0,0,0,1.23-3.813l0-.013" transform="translate(-0.355 -0.313)"/>
    </g>
  </g>
</svg>
