<svg xmlns="http://www.w3.org/2000/svg" width="22" height="22" viewBox="0 0 22 22">
  <g id="icon_schedule" transform="translate(0.424 -0.16)">
    <rect id="Rectangle_119" data-name="Rectangle 119" width="22" height="22" transform="translate(-0.424 0.16)" fill="none"/>
    <path id="icon_schedule-2" data-name="icon_schedule" d="M93.736-865.109l1.13-1.13-3.993-4.018V-875.3H89.366v5.65Zm-3.691,5.2a9.718,9.718,0,0,1-3.892-.791,10.191,10.191,0,0,1-3.2-2.16,10.188,10.188,0,0,1-2.16-3.2A9.72,9.72,0,0,1,80-869.956a9.719,9.719,0,0,1,.791-3.892,10.186,10.186,0,0,1,2.16-3.2,10.187,10.187,0,0,1,3.2-2.16A9.719,9.719,0,0,1,90.044-880a9.719,9.719,0,0,1,3.892.791,10.187,10.187,0,0,1,3.2,2.16,10.186,10.186,0,0,1,2.16,3.2,9.719,9.719,0,0,1,.791,3.892,9.72,9.72,0,0,1-.791,3.892,10.188,10.188,0,0,1-2.16,3.2,10.191,10.191,0,0,1-3.2,2.16A9.718,9.718,0,0,1,90.044-859.911ZM90.044-869.956Zm0,8.538a8.22,8.22,0,0,0,6.027-2.511,8.22,8.22,0,0,0,2.511-6.027,8.219,8.219,0,0,0-2.511-6.027,8.22,8.22,0,0,0-6.027-2.511,8.219,8.219,0,0,0-6.027,2.511,8.219,8.219,0,0,0-2.511,6.027,8.22,8.22,0,0,0,2.511,6.027A8.22,8.22,0,0,0,90.044-861.418Z" transform="translate(-79.097 880.481)" fill="#f5742e"/>
  </g>
</svg>
