<svg id="icon_time" xmlns="http://www.w3.org/2000/svg" xmlns:xlink="http://www.w3.org/1999/xlink" width="32" height="32" viewBox="0 0 32 32">
  <defs>
    <clipPath id="clip-path">
      <rect id="Rectangle_125" data-name="Rectangle 125" width="32" height="32" fill="none"/>
    </clipPath>
  </defs>
  <g id="Group_278" data-name="Group 278" clip-path="url(#clip-path)">
    <path id="Path_90" data-name="Path 90" d="M16.007,0A16,16,0,1,0,32,16.007a1.454,1.454,0,0,0-1.446-1.463H30.54A1.454,1.454,0,0,0,29.092,16v0a13.092,13.092,0,1,1-13.085-13.1,1.454,1.454,0,0,0,0-2.908Z" transform="translate(0)" fill="#fff"/>
    <path id="Path_91" data-name="Path 91" d="M296.074,16.036a1.457,1.457,0,0,0-.54,2.8c.017.007.028.016.042.023a1.456,1.456,0,1,0,1.128-2.684c-.021-.009-.044-.024-.062-.031a1.452,1.452,0,0,0-.568-.111Z" transform="translate(-274.549 -14.943)" fill="#fff"/>
    <path id="Path_92" data-name="Path 92" d="M365.416,62.208A1.46,1.46,0,0,0,364.4,64.7l.031.031a1.454,1.454,0,1,0,2.062-2.05l-.042-.042a1.454,1.454,0,0,0-1.031-.429Z" transform="translate(-339.158 -57.968)" fill="#fff"/>
    <path id="Path_93" data-name="Path 93" d="M214.837,85.375a1.454,1.454,0,0,0-1.463,1.446s0,.01,0,.014v8.728a1.454,1.454,0,0,0,.807,1.3L220,99.769a1.454,1.454,0,0,0,1.952-.648l0,0a1.454,1.454,0,0,0-.648-1.952l0,0-5.013-2.5V86.834A1.454,1.454,0,0,0,214.837,85.375Z" transform="translate(-198.83 -79.555)" fill="#fff"/>
    <path id="Path_94" data-name="Path 94" d="M411.736,131.248a1.462,1.462,0,0,0-1.355,2.025c.007.018.017.027.023.042a1.456,1.456,0,1,0,2.7-1.1l-.022-.054a1.456,1.456,0,0,0-1.34-.909Z" transform="translate(-382.3 -122.302)" fill="#fff"/>
  </g>
</svg>
