<svg xmlns="http://www.w3.org/2000/svg" width="24" height="24.227" viewBox="0 0 24 24.227">
  <g id="login_logo-apple" transform="translate(-134 -457.773)">
    <g id="Group_119" data-name="Group 119" transform="translate(-506 217)">
      <rect id="Rectangle_68" data-name="Rectangle 68" width="24" height="24" transform="translate(640 241)" fill="none"/>
      <g id="apple-logo_747" transform="translate(640.711 240.773)">
        <g id="Group_118" data-name="Group 118" transform="translate(2.104)">
          <path id="Path_66" data-name="Path 66" d="M15.857,0h.165A4.974,4.974,0,0,1,14.77,3.748a3.883,3.883,0,0,1-3.418,1.6,4.824,4.824,0,0,1,1.275-3.632A5.507,5.507,0,0,1,15.857,0Z" transform="translate(-1.92)"/>
          <path id="Path_67" data-name="Path 67" d="M21.04,16.94v.046a13.514,13.514,0,0,1-1.934,3.728c-.737,1.015-1.641,2.381-3.255,2.381-1.394,0-2.32-.9-3.749-.921-1.512-.024-2.343.75-3.725.944H7.906a4.209,4.209,0,0,1-2.431-1.675A14.673,14.673,0,0,1,2.1,13V11.962A6.807,6.807,0,0,1,5.076,6.375a5.019,5.019,0,0,1,3.37-.78,8.477,8.477,0,0,1,1.651.473,4.56,4.56,0,0,0,1.65.495,3.961,3.961,0,0,0,1.158-.354,7.123,7.123,0,0,1,3.725-.661,5.168,5.168,0,0,1,3.8,2.264,4.873,4.873,0,0,0-2.475,4.834A4.991,4.991,0,0,0,21.04,16.94Z" transform="translate(-2.104 0.109)"/>
        </g>
      </g>
    </g>
  </g>
</svg>
