<svg xmlns="http://www.w3.org/2000/svg" width="50" height="50" viewBox="0 0 50 50">
  <g id="icon_member_Centre" data-name="icon_member Centre" transform="translate(-41 -272)">
    <rect id="Rectangle_59" data-name="Rectangle 59" width="50" height="50" transform="translate(41 272)" fill="none"/>
    <path id="account_circle_FILL1_wght400_GRAD0_opsz48" d="M87.579-846.641a30.356,30.356,0,0,1,6.645-3.229,22.4,22.4,0,0,1,7.125-1.094,22.65,22.65,0,0,1,7.152,1.094,30.144,30.144,0,0,1,6.672,3.229,18.739,18.739,0,0,0,3.336-5.818,19.291,19.291,0,0,0,.987-6.192,17.57,17.57,0,0,0-5.2-12.943,17.57,17.57,0,0,0-12.943-5.2,17.57,17.57,0,0,0-12.943,5.2,17.57,17.57,0,0,0-5.2,12.943,18.828,18.828,0,0,0,1.014,6.192A19.21,19.21,0,0,0,87.579-846.641Zm13.761-10.408a7.042,7.042,0,0,1-5.194-2.118,7.091,7.091,0,0,1-2.108-5.2,7.042,7.042,0,0,1,2.118-5.194,7.091,7.091,0,0,1,5.2-2.108,7.041,7.041,0,0,1,5.194,2.118,7.091,7.091,0,0,1,2.108,5.2,7.042,7.042,0,0,1-2.118,5.194A7.091,7.091,0,0,1,101.34-857.049Zm-.012,19.749a20.858,20.858,0,0,1-8.341-1.681,21.375,21.375,0,0,1-6.791-4.59,21.492,21.492,0,0,1-4.542-6.8A20.992,20.992,0,0,1,80-858.677a20.7,20.7,0,0,1,1.681-8.308,21.365,21.365,0,0,1,4.59-6.77,21.912,21.912,0,0,1,6.8-4.563A20.7,20.7,0,0,1,101.376-880a20.7,20.7,0,0,1,8.308,1.681,21.585,21.585,0,0,1,6.77,4.563,21.562,21.562,0,0,1,4.564,6.779,20.755,20.755,0,0,1,1.681,8.312,20.666,20.666,0,0,1-1.681,8.3,21.928,21.928,0,0,1-4.564,6.793,21.315,21.315,0,0,1-6.785,4.59A20.858,20.858,0,0,1,101.328-837.3Z" transform="translate(-35.35 1155.65)"/>
  </g>
</svg>
