<svg xmlns="http://www.w3.org/2000/svg" xmlns:xlink="http://www.w3.org/1999/xlink" width="50" height="50" viewBox="0 0 50 50">
  <defs>
    <clipPath id="clip-path">
      <rect id="Rectangle_19" data-name="Rectangle 19" width="40" height="40.187" fill="none"/>
    </clipPath>
  </defs>
  <g id="icon_member-Information" transform="translate(-41 -212)">
    <rect id="Rectangle_54" data-name="Rectangle 54" width="50" height="50" transform="translate(41 212)" fill="none"/>
    <g id="Group_14" data-name="Group 14" transform="translate(46 216.906)">
      <path id="Path_39" data-name="Path 39" d="M23.341,26.351l-7.441,7.5H36.179v-7.5Z" transform="translate(3.821 6.332)"/>
      <path id="Path_40" data-name="Path 40" d="M3.721,31.944,23.256,12.409,26.047,15.2,6.512,34.735H3.721ZM0,30.208v8.248H8.248L31.38,15.324,23.132,7.076Z" transform="translate(0 1.7)"/>
      <g id="Group_13" data-name="Group 13" transform="translate(0 0)">
        <g id="Group_12" data-name="Group 12" clip-path="url(#clip-path)">
          <path id="Path_41" data-name="Path 41" d="M29.1,14.3,20.85,6.048,26.059.838A2.108,2.108,0,0,1,27.61,0a2.371,2.371,0,0,1,1.736.837l4.837,4.837a2.4,2.4,0,0,1,.806,1.705,2.6,2.6,0,0,1-.682,1.705Z" transform="translate(5.01 0)"/>
        </g>
      </g>
    </g>
  </g>
</svg>
