<svg xmlns="http://www.w3.org/2000/svg" width="50" height="50" viewBox="0 0 50 50">
  <g id="icon_my-ticket" transform="translate(-321 -212)">
    <rect id="Rectangle_58" data-name="Rectangle 58" width="50" height="50" transform="translate(321 212)" fill="none"/>
    <path id="confirmation_number_FILL0_wght400_GRAD0_opsz48" d="M101.484-772.232a1.545,1.545,0,0,0,1.128-.484,1.545,1.545,0,0,0,.483-1.128,1.546,1.546,0,0,0-.483-1.128,1.546,1.546,0,0,0-1.128-.483,1.546,1.546,0,0,0-1.128.483,1.546,1.546,0,0,0-.483,1.128,1.545,1.545,0,0,0,.483,1.128A1.546,1.546,0,0,0,101.484-772.232Zm0-8.97a1.546,1.546,0,0,0,1.128-.483,1.545,1.545,0,0,0,.483-1.128,1.546,1.546,0,0,0-.483-1.128,1.546,1.546,0,0,0-1.128-.483,1.546,1.546,0,0,0-1.128.483,1.546,1.546,0,0,0-.483,1.128,1.546,1.546,0,0,0,.483,1.128A1.546,1.546,0,0,0,101.484-781.2Zm0-8.969a1.546,1.546,0,0,0,1.128-.484,1.546,1.546,0,0,0,.483-1.128,1.546,1.546,0,0,0-.483-1.128,1.546,1.546,0,0,0-1.128-.483,1.546,1.546,0,0,0-1.128.483,1.546,1.546,0,0,0-.483,1.128,1.546,1.546,0,0,0,.483,1.128A1.546,1.546,0,0,0,101.484-790.171Zm18.261,24.545H83.223a3.1,3.1,0,0,1-2.276-.947A3.1,3.1,0,0,1,80-768.848v-8.218a5.771,5.771,0,0,0,3.3-2.014,5.661,5.661,0,0,0,1.316-3.733,5.766,5.766,0,0,0-1.316-3.76A5.465,5.465,0,0,0,80-788.56v-8.218a3.1,3.1,0,0,1,.947-2.276A3.1,3.1,0,0,1,83.223-800h36.523a3.1,3.1,0,0,1,2.276.947,3.1,3.1,0,0,1,.947,2.276v8.218a5.465,5.465,0,0,0-3.3,1.987,5.766,5.766,0,0,0-1.316,3.76,5.661,5.661,0,0,0,1.316,3.733,5.771,5.771,0,0,0,3.3,2.014v8.218a3.1,3.1,0,0,1-.947,2.276A3.1,3.1,0,0,1,119.745-765.626Zm0-3.223V-774.7a11.471,11.471,0,0,1-3.33-3.491,8.642,8.642,0,0,1-1.289-4.619,8.642,8.642,0,0,1,1.289-4.619,11.47,11.47,0,0,1,3.33-3.491v-5.854H83.223v5.854a10.953,10.953,0,0,1,3.357,3.491,8.781,8.781,0,0,1,1.262,4.619,8.78,8.78,0,0,1-1.262,4.619,10.953,10.953,0,0,1-3.357,3.491v5.854ZM101.484-782.813Z" transform="translate(244.516 1019.813)"/>
  </g>
</svg>
