<svg xmlns="http://www.w3.org/2000/svg" width="50" height="50" viewBox="0 0 50 50">
  <g id="icon_order-history" transform="translate(-111 -212)">
    <rect id="Rectangle_55" data-name="Rectangle 55" width="50" height="50" transform="translate(111 212)" fill="none"/>
    <path id="receipt_long_FILL0_wght400_GRAD0_opsz48" d="M122.617-837.2a5.417,5.417,0,0,1-3.979-1.638A5.417,5.417,0,0,1,117-842.82v-6.687h6.794V-880l3.2,3.21,3.2-3.21,3.2,3.21,3.2-3.21,3.2,3.21L143-880l3.21,3.21,3.21-3.21,3.21,3.21,3.21-3.21v37.181a5.417,5.417,0,0,1-1.638,3.979,5.417,5.417,0,0,1-3.979,1.638Zm27.6-3.21a2.353,2.353,0,0,0,1.739-.669,2.352,2.352,0,0,0,.669-1.739V-874.65H127v25.144h20.81v6.687a2.352,2.352,0,0,0,.669,1.739A2.352,2.352,0,0,0,150.222-840.412ZM129.839-866.2v-3.21h12.839v3.21Zm0,7.169v-3.21h12.839v3.21Zm17.814-7.169a1.54,1.54,0,0,1-1.123-.481,1.54,1.54,0,0,1-.481-1.123,1.54,1.54,0,0,1,.481-1.123,1.54,1.54,0,0,1,1.123-.481,1.54,1.54,0,0,1,1.123.481,1.54,1.54,0,0,1,.481,1.123,1.54,1.54,0,0,1-.481,1.123A1.54,1.54,0,0,1,147.654-866.2Zm0,6.9a1.539,1.539,0,0,1-1.123-.482,1.539,1.539,0,0,1-.481-1.123,1.539,1.539,0,0,1,.481-1.123,1.54,1.54,0,0,1,1.123-.482,1.54,1.54,0,0,1,1.123.482,1.539,1.539,0,0,1,.481,1.123,1.539,1.539,0,0,1-.481,1.123A1.539,1.539,0,0,1,147.654-859.3Zm-25.09,18.884H144.6V-846.3H120.21v3.477a2.337,2.337,0,0,0,.677,1.739A2.292,2.292,0,0,0,122.564-840.412Zm-2.354,0v0Z" transform="translate(-0.419 1095.296)"/>
  </g>
</svg>
