<svg xmlns="http://www.w3.org/2000/svg" width="20" height="20" viewBox="0 0 50 50">
  <path id="icon_remove" d="M92.5-853.312h25v-3.75h-25ZM105-830a24.19,24.19,0,0,1-9.688-1.969,25.357,25.357,0,0,1-7.969-5.375,25.357,25.357,0,0,1-5.375-7.969A24.19,24.19,0,0,1,80-855a24.344,24.344,0,0,1,1.969-9.75,24.985,24.985,0,0,1,5.375-7.937,25.627,25.627,0,0,1,7.969-5.344A24.19,24.19,0,0,1,105-880a24.344,24.344,0,0,1,9.75,1.969,25.247,25.247,0,0,1,7.938,5.344,25.247,25.247,0,0,1,5.344,7.938A24.344,24.344,0,0,1,130-855a24.19,24.19,0,0,1-1.969,9.688,25.627,25.627,0,0,1-5.344,7.969,24.984,24.984,0,0,1-7.937,5.375A24.344,24.344,0,0,1,105-830Zm0-3.75a20.448,20.448,0,0,0,15.062-6.219A20.53,20.53,0,0,0,126.25-855a20.5,20.5,0,0,0-6.188-15.062A20.5,20.5,0,0,0,105-876.25a20.53,20.53,0,0,0-15.031,6.188A20.448,20.448,0,0,0,83.75-855a20.478,20.478,0,0,0,6.219,15.031A20.478,20.478,0,0,0,105-833.75ZM105-855Z" transform="translate(-80 880)"/>
</svg>
