<svg xmlns="http://www.w3.org/2000/svg" width="30" height="30" viewBox="0 0 30 30">
  <g id="icon_seat__optional" data-name="icon_seat_ optional" transform="translate(-0.5 -0.342)">
    <rect id="Rectangle_59" data-name="Rectangle 59" width="30" height="30" transform="translate(0.5 0.342)" fill="none"/>
    <path id="chair_FILL1_wght400_GRAD0_opsz48" d="M44.553-818.543a.867.867,0,0,1-.64-.253.867.867,0,0,1-.253-.64v-1.28H43.1a2.865,2.865,0,0,1-2.217-.967A3.315,3.315,0,0,1,40-823.989v-7.2a2.284,2.284,0,0,1,.61-1.592,1.953,1.953,0,0,1,1.5-.67,1.953,1.953,0,0,1,1.5.67,2.284,2.284,0,0,1,.61,1.592v5.148H61.963v-5.148a2.284,2.284,0,0,1,.61-1.592,1.953,1.953,0,0,1,1.5-.67,1.953,1.953,0,0,1,1.5.67,2.284,2.284,0,0,1,.61,1.592v7.2a3.315,3.315,0,0,1-.878,2.306,2.833,2.833,0,0,1-2.187.967h-.6v1.28a.867.867,0,0,1-.253.64.867.867,0,0,1-.64.253A.867.867,0,0,1,61-818.8a.867.867,0,0,1-.253-.64v-1.28h-15.3v1.28a.867.867,0,0,1-.253.64A.867.867,0,0,1,44.553-818.543Zm1.458-9.285v-3.363a4.3,4.3,0,0,0-.789-2.544,3.431,3.431,0,0,0-2.128-1.414v-1.786a3.082,3.082,0,0,1,.833-2.158A2.71,2.71,0,0,1,46.011-840H60.177a2.756,2.756,0,0,1,2.1.908,3.052,3.052,0,0,1,.848,2.158v1.786a3.619,3.619,0,0,0-2.143,1.443,4.2,4.2,0,0,0-.8,2.515v3.363Z" transform="translate(-37.545 844.909)" fill="#fff"/>
  </g>
</svg>
