<svg xmlns="http://www.w3.org/2000/svg" width="50" height="50" viewBox="0 0 50 50">
  <g id="icon_buy-tickets" transform="translate(-321 -212)">
    <rect id="Rectangle_58" data-name="Rectangle 58" width="50" height="50" transform="translate(321 212)" fill="none"/>
    <path id="payments_FILL0_wght400_GRAD0_opsz48" d="M59.474-780.526a5.93,5.93,0,0,0,4.356-1.794,5.93,5.93,0,0,0,1.794-4.356,5.93,5.93,0,0,0-1.794-4.356,5.93,5.93,0,0,0-4.356-1.794,5.93,5.93,0,0,0-4.356,1.794,5.93,5.93,0,0,0-1.794,4.356,5.93,5.93,0,0,0,1.794,4.356A5.93,5.93,0,0,0,59.474-780.526Zm16.4,7.175a2.961,2.961,0,0,0,2.172-.9,2.961,2.961,0,0,0,.9-2.172v-20.5a2.961,2.961,0,0,0-.9-2.172,2.961,2.961,0,0,0-2.172-.9h-32.8a2.961,2.961,0,0,0-2.172.9,2.961,2.961,0,0,0-.9,2.172v20.5a2.961,2.961,0,0,0,.9,2.172,2.961,2.961,0,0,0,2.172.9Zm0-3.075h-32.8v-20.5h32.8ZM46.15-767.2H82.022a2.961,2.961,0,0,0,2.172-.9,2.96,2.96,0,0,0,.9-2.172V-793.85H82.022v23.573H46.15Z" transform="translate(283.452 1020.601)"/>
  </g>
</svg>
