<svg xmlns="http://www.w3.org/2000/svg" width="32" height="32" viewBox="0 0 32 32">
  <g id="icon_zoom_out_default" transform="translate(-944 -1505)">
    <rect id="Rectangle_70" data-name="Rectangle 70" width="32" height="32" transform="translate(944 1505)" fill="none"/>
    <path id="zoom_out_FILL0_wght400_GRAD0_opsz48" d="M148.167-811l-10.958-10.958a9.184,9.184,0,0,1-2.915,1.688,10.306,10.306,0,0,1-3.543.6,10.372,10.372,0,0,1-7.628-3.125A10.283,10.283,0,0,1,120-830.333a10.277,10.277,0,0,1,3.125-7.542A10.3,10.3,0,0,1,130.688-841a10.232,10.232,0,0,1,7.542,3.125,10.319,10.319,0,0,1,3.1,7.548,10.377,10.377,0,0,1-.583,3.452A10.578,10.578,0,0,1,139-823.75l11,10.917Zm-17.458-11.167a7.793,7.793,0,0,0,5.755-2.4,7.91,7.91,0,0,0,2.37-5.771,7.909,7.909,0,0,0-2.37-5.771,7.792,7.792,0,0,0-5.755-2.4,7.913,7.913,0,0,0-5.814,2.4,7.869,7.869,0,0,0-2.394,5.771,7.869,7.869,0,0,0,2.394,5.771A7.913,7.913,0,0,0,130.708-822.167Zm-4.25-6.958v-2.5h8.375v2.5Z" transform="translate(825 2347)" opacity="0.5"/>
  </g>
</svg>
